<mxfile host="Electron" modified="2023-04-19T21:09:28.394Z" agent="Mozilla/5.0 (Windows NT 10.0; Win64; x64) AppleWebKit/537.36 (KHTML, like Gecko) draw.io/21.1.2 Chrome/106.0.5249.199 Electron/21.4.3 Safari/537.36" etag="PtUDexjuBCAAF6F1GGr7" version="21.1.2" type="device">
  <diagram name="Страница 1" id="7LFkOio8whfy6LIMgqHr">
    <mxGraphModel dx="407" dy="477" grid="1" gridSize="10" guides="1" tooltips="1" connect="1" arrows="1" fold="1" page="1" pageScale="1" pageWidth="827" pageHeight="1169" math="1" shadow="0">
      <root>
        <mxCell id="0" />
        <mxCell id="1" parent="0" />
        <mxCell id="OzYki6O7S9MT6wnLtiMj-1" value="&lt;font style=&quot;font-size: 24px;&quot;&gt;$$S_0$$&lt;/font&gt;" style="ellipse;whiteSpace=wrap;html=1;aspect=fixed;" parent="1" vertex="1">
          <mxGeometry x="100" y="180" width="80" height="80" as="geometry" />
        </mxCell>
        <mxCell id="OzYki6O7S9MT6wnLtiMj-2" value="&lt;font style=&quot;font-size: 24px;&quot;&gt;$$S_1$$&lt;/font&gt;" style="ellipse;whiteSpace=wrap;html=1;aspect=fixed;" parent="1" vertex="1">
          <mxGeometry x="260" y="180" width="80" height="80" as="geometry" />
        </mxCell>
        <mxCell id="OzYki6O7S9MT6wnLtiMj-3" value="&lt;font style=&quot;font-size: 24px;&quot;&gt;$$S_2$$&lt;/font&gt;" style="ellipse;whiteSpace=wrap;html=1;aspect=fixed;" parent="1" vertex="1">
          <mxGeometry x="420" y="180" width="80" height="80" as="geometry" />
        </mxCell>
        <mxCell id="OzYki6O7S9MT6wnLtiMj-4" value="&lt;font style=&quot;font-size: 24px;&quot;&gt;$$S_k$$&lt;/font&gt;" style="ellipse;whiteSpace=wrap;html=1;aspect=fixed;" parent="1" vertex="1">
          <mxGeometry x="680" y="180" width="80" height="80" as="geometry" />
        </mxCell>
        <mxCell id="OzYki6O7S9MT6wnLtiMj-6" value="&lt;font style=&quot;font-size: 24px;&quot;&gt;$$S_{0s}$$&lt;/font&gt;" style="ellipse;whiteSpace=wrap;html=1;aspect=fixed;" parent="1" vertex="1">
          <mxGeometry x="100" y="370" width="80" height="80" as="geometry" />
        </mxCell>
        <mxCell id="OzYki6O7S9MT6wnLtiMj-7" value="&lt;font style=&quot;font-size: 24px;&quot;&gt;$$S_{1s}$$&lt;/font&gt;" style="ellipse;whiteSpace=wrap;html=1;aspect=fixed;" parent="1" vertex="1">
          <mxGeometry x="260" y="370" width="80" height="80" as="geometry" />
        </mxCell>
        <mxCell id="OzYki6O7S9MT6wnLtiMj-8" value="&lt;font style=&quot;font-size: 24px;&quot;&gt;$$S_{2s}$$&lt;/font&gt;" style="ellipse;whiteSpace=wrap;html=1;aspect=fixed;" parent="1" vertex="1">
          <mxGeometry x="420" y="370" width="80" height="80" as="geometry" />
        </mxCell>
        <mxCell id="OzYki6O7S9MT6wnLtiMj-9" value="&lt;font style=&quot;font-size: 24px;&quot;&gt;$$S_{ms}$$&lt;/font&gt;" style="ellipse;whiteSpace=wrap;html=1;aspect=fixed;" parent="1" vertex="1">
          <mxGeometry x="680" y="370" width="80" height="80" as="geometry" />
        </mxCell>
        <mxCell id="OzYki6O7S9MT6wnLtiMj-10" value="" style="endArrow=classic;html=1;rounded=0;exitX=0.338;exitY=0.963;exitDx=0;exitDy=0;exitPerimeter=0;entryX=0.333;entryY=0.022;entryDx=0;entryDy=0;entryPerimeter=0;" parent="1" source="OzYki6O7S9MT6wnLtiMj-1" target="OzYki6O7S9MT6wnLtiMj-6" edge="1">
          <mxGeometry width="50" height="50" relative="1" as="geometry">
            <mxPoint x="110" y="340" as="sourcePoint" />
            <mxPoint x="130" y="380" as="targetPoint" />
          </mxGeometry>
        </mxCell>
        <mxCell id="OzYki6O7S9MT6wnLtiMj-18" value="$$\nu$$" style="edgeLabel;html=1;align=center;verticalAlign=middle;resizable=0;points=[];labelBackgroundColor=none;" parent="OzYki6O7S9MT6wnLtiMj-10" connectable="0" vertex="1">
          <mxGeometry x="-0.1704" y="-1" relative="1" as="geometry">
            <mxPoint x="-6" as="offset" />
          </mxGeometry>
        </mxCell>
        <mxCell id="OzYki6O7S9MT6wnLtiMj-11" value="" style="endArrow=classic;html=1;rounded=0;exitX=0.619;exitY=0.016;exitDx=0;exitDy=0;exitPerimeter=0;" parent="1" source="OzYki6O7S9MT6wnLtiMj-6" edge="1">
          <mxGeometry width="50" height="50" relative="1" as="geometry">
            <mxPoint x="240" y="410" as="sourcePoint" />
            <mxPoint x="150" y="260" as="targetPoint" />
          </mxGeometry>
        </mxCell>
        <mxCell id="OzYki6O7S9MT6wnLtiMj-22" value="$$\gamma$$" style="edgeLabel;html=1;align=center;verticalAlign=middle;resizable=0;points=[];labelBackgroundColor=none;" parent="OzYki6O7S9MT6wnLtiMj-11" connectable="0" vertex="1">
          <mxGeometry x="0.1053" y="-2" relative="1" as="geometry">
            <mxPoint x="8" as="offset" />
          </mxGeometry>
        </mxCell>
        <mxCell id="OzYki6O7S9MT6wnLtiMj-12" value="" style="endArrow=classic;html=1;rounded=0;exitX=0.359;exitY=0.973;exitDx=0;exitDy=0;exitPerimeter=0;entryX=0.356;entryY=0.019;entryDx=0;entryDy=0;entryPerimeter=0;" parent="1" source="OzYki6O7S9MT6wnLtiMj-2" target="OzYki6O7S9MT6wnLtiMj-7" edge="1">
          <mxGeometry width="50" height="50" relative="1" as="geometry">
            <mxPoint x="288.21000000000004" y="255" as="sourcePoint" />
            <mxPoint x="288.21000000000004" y="370" as="targetPoint" />
          </mxGeometry>
        </mxCell>
        <mxCell id="OzYki6O7S9MT6wnLtiMj-13" value="" style="endArrow=classic;html=1;rounded=0;exitX=0.635;exitY=0.015;exitDx=0;exitDy=0;exitPerimeter=0;entryX=0.638;entryY=0.973;entryDx=0;entryDy=0;entryPerimeter=0;" parent="1" source="OzYki6O7S9MT6wnLtiMj-7" target="OzYki6O7S9MT6wnLtiMj-2" edge="1">
          <mxGeometry width="50" height="50" relative="1" as="geometry">
            <mxPoint x="311.21000000000004" y="369" as="sourcePoint" />
            <mxPoint x="311.21000000000004" y="258" as="targetPoint" />
          </mxGeometry>
        </mxCell>
        <mxCell id="OzYki6O7S9MT6wnLtiMj-14" value="" style="endArrow=classic;html=1;rounded=0;entryX=0.356;entryY=0.023;entryDx=0;entryDy=0;entryPerimeter=0;exitX=0.35;exitY=0.986;exitDx=0;exitDy=0;exitPerimeter=0;" parent="1" source="OzYki6O7S9MT6wnLtiMj-3" target="OzYki6O7S9MT6wnLtiMj-8" edge="1">
          <mxGeometry width="50" height="50" relative="1" as="geometry">
            <mxPoint x="448" y="260" as="sourcePoint" />
            <mxPoint x="448.21" y="375" as="targetPoint" />
          </mxGeometry>
        </mxCell>
        <mxCell id="OzYki6O7S9MT6wnLtiMj-15" value="" style="endArrow=classic;html=1;rounded=0;exitX=0.646;exitY=0.012;exitDx=0;exitDy=0;exitPerimeter=0;entryX=0.635;entryY=0.991;entryDx=0;entryDy=0;entryPerimeter=0;" parent="1" source="OzYki6O7S9MT6wnLtiMj-8" target="OzYki6O7S9MT6wnLtiMj-3" edge="1">
          <mxGeometry width="50" height="50" relative="1" as="geometry">
            <mxPoint x="471.21" y="370" as="sourcePoint" />
            <mxPoint x="471.21" y="259" as="targetPoint" />
          </mxGeometry>
        </mxCell>
        <mxCell id="OzYki6O7S9MT6wnLtiMj-16" value="" style="endArrow=classic;html=1;rounded=0;exitX=0.343;exitY=0.984;exitDx=0;exitDy=0;exitPerimeter=0;entryX=0.357;entryY=0.015;entryDx=0;entryDy=0;entryPerimeter=0;" parent="1" source="OzYki6O7S9MT6wnLtiMj-4" target="OzYki6O7S9MT6wnLtiMj-9" edge="1">
          <mxGeometry width="50" height="50" relative="1" as="geometry">
            <mxPoint x="708.26" y="255" as="sourcePoint" />
            <mxPoint x="708.26" y="370" as="targetPoint" />
          </mxGeometry>
        </mxCell>
        <mxCell id="OzYki6O7S9MT6wnLtiMj-17" value="" style="endArrow=classic;html=1;rounded=0;entryX=0.631;entryY=0.988;entryDx=0;entryDy=0;entryPerimeter=0;" parent="1" target="OzYki6O7S9MT6wnLtiMj-4" edge="1">
          <mxGeometry width="50" height="50" relative="1" as="geometry">
            <mxPoint x="730" y="370" as="sourcePoint" />
            <mxPoint x="731.26" y="258" as="targetPoint" />
          </mxGeometry>
        </mxCell>
        <mxCell id="OzYki6O7S9MT6wnLtiMj-19" value="$$\nu$$" style="edgeLabel;html=1;align=center;verticalAlign=middle;resizable=0;points=[];labelBackgroundColor=none;" parent="1" connectable="0" vertex="1">
          <mxGeometry x="280.0041508540402" y="310.00379169141127" as="geometry" />
        </mxCell>
        <mxCell id="OzYki6O7S9MT6wnLtiMj-20" value="$$\nu$$" style="edgeLabel;html=1;align=center;verticalAlign=middle;resizable=0;points=[];labelBackgroundColor=none;" parent="1" connectable="0" vertex="1">
          <mxGeometry x="139.87415085404018" y="324.6037916914113" as="geometry">
            <mxPoint x="301" y="-16" as="offset" />
          </mxGeometry>
        </mxCell>
        <mxCell id="OzYki6O7S9MT6wnLtiMj-21" value="$$\nu$$" style="edgeLabel;html=1;align=center;verticalAlign=middle;resizable=0;points=[];labelBackgroundColor=none;" parent="1" connectable="0" vertex="1">
          <mxGeometry x="149.87415085404018" y="334.6037916914113" as="geometry">
            <mxPoint x="547" y="-25" as="offset" />
          </mxGeometry>
        </mxCell>
        <mxCell id="OzYki6O7S9MT6wnLtiMj-23" value="$$\gamma$$" style="edgeLabel;html=1;align=center;verticalAlign=middle;resizable=0;points=[];labelBackgroundColor=none;" parent="1" connectable="0" vertex="1">
          <mxGeometry x="320.0047764389026" y="310.0003090045727" as="geometry" />
        </mxCell>
        <mxCell id="OzYki6O7S9MT6wnLtiMj-24" value="$$\gamma$$" style="edgeLabel;html=1;align=center;verticalAlign=middle;resizable=0;points=[];labelBackgroundColor=none;" parent="1" connectable="0" vertex="1">
          <mxGeometry x="480.0047764389026" y="310.0003090045727" as="geometry" />
        </mxCell>
        <mxCell id="OzYki6O7S9MT6wnLtiMj-25" value="$$\gamma$$" style="edgeLabel;html=1;align=center;verticalAlign=middle;resizable=0;points=[];labelBackgroundColor=none;" parent="1" connectable="0" vertex="1">
          <mxGeometry x="370.0047764389026" y="360.0003090045727" as="geometry">
            <mxPoint x="369" y="-53" as="offset" />
          </mxGeometry>
        </mxCell>
        <mxCell id="OzYki6O7S9MT6wnLtiMj-26" value="" style="endArrow=classic;html=1;rounded=0;exitX=1;exitY=0.5;exitDx=0;exitDy=0;entryX=0;entryY=0.5;entryDx=0;entryDy=0;" parent="1" source="OzYki6O7S9MT6wnLtiMj-6" target="OzYki6O7S9MT6wnLtiMj-7" edge="1">
          <mxGeometry width="50" height="50" relative="1" as="geometry">
            <mxPoint x="380" y="380" as="sourcePoint" />
            <mxPoint x="430" y="330" as="targetPoint" />
          </mxGeometry>
        </mxCell>
        <mxCell id="OzYki6O7S9MT6wnLtiMj-28" value="$$k\lambda$$" style="edgeLabel;html=1;align=center;verticalAlign=middle;resizable=0;points=[];fontColor=default;labelBackgroundColor=none;" parent="OzYki6O7S9MT6wnLtiMj-26" connectable="0" vertex="1">
          <mxGeometry x="-0.1" relative="1" as="geometry">
            <mxPoint y="-10" as="offset" />
          </mxGeometry>
        </mxCell>
        <mxCell id="OzYki6O7S9MT6wnLtiMj-29" value="" style="endArrow=classic;html=1;rounded=0;exitX=1;exitY=0.5;exitDx=0;exitDy=0;entryX=0;entryY=0.5;entryDx=0;entryDy=0;" parent="1" source="OzYki6O7S9MT6wnLtiMj-7" target="OzYki6O7S9MT6wnLtiMj-8" edge="1">
          <mxGeometry width="50" height="50" relative="1" as="geometry">
            <mxPoint x="340" y="409.8" as="sourcePoint" />
            <mxPoint x="420" y="410" as="targetPoint" />
          </mxGeometry>
        </mxCell>
        <mxCell id="OzYki6O7S9MT6wnLtiMj-30" value="$$(k-1)\lambda$$" style="edgeLabel;html=1;align=center;verticalAlign=middle;resizable=0;points=[];fontColor=default;labelBackgroundColor=none;" parent="OzYki6O7S9MT6wnLtiMj-29" connectable="0" vertex="1">
          <mxGeometry x="-0.1" relative="1" as="geometry">
            <mxPoint y="-10" as="offset" />
          </mxGeometry>
        </mxCell>
        <mxCell id="OzYki6O7S9MT6wnLtiMj-31" value="" style="endArrow=classic;html=1;rounded=0;exitX=1;exitY=0.5;exitDx=0;exitDy=0;" parent="1" source="OzYki6O7S9MT6wnLtiMj-8" edge="1">
          <mxGeometry width="50" height="50" relative="1" as="geometry">
            <mxPoint x="500" y="409.71" as="sourcePoint" />
            <mxPoint x="570" y="410" as="targetPoint" />
          </mxGeometry>
        </mxCell>
        <mxCell id="OzYki6O7S9MT6wnLtiMj-32" value="$$(k-2)\lambda$$" style="edgeLabel;html=1;align=center;verticalAlign=middle;resizable=0;points=[];fontColor=default;labelBackgroundColor=none;" parent="OzYki6O7S9MT6wnLtiMj-31" connectable="0" vertex="1">
          <mxGeometry x="-0.1" relative="1" as="geometry">
            <mxPoint y="-10" as="offset" />
          </mxGeometry>
        </mxCell>
        <mxCell id="OzYki6O7S9MT6wnLtiMj-33" value="" style="endArrow=classic;html=1;rounded=0;entryX=0;entryY=0.5;entryDx=0;entryDy=0;" parent="1" target="OzYki6O7S9MT6wnLtiMj-9" edge="1">
          <mxGeometry width="50" height="50" relative="1" as="geometry">
            <mxPoint x="620" y="410" as="sourcePoint" />
            <mxPoint x="680" y="409.71" as="targetPoint" />
          </mxGeometry>
        </mxCell>
        <mxCell id="OzYki6O7S9MT6wnLtiMj-34" value="$$\lambda$$" style="edgeLabel;html=1;align=center;verticalAlign=middle;resizable=0;points=[];fontColor=default;labelBackgroundColor=none;" parent="OzYki6O7S9MT6wnLtiMj-33" connectable="0" vertex="1">
          <mxGeometry x="-0.1" relative="1" as="geometry">
            <mxPoint y="-10" as="offset" />
          </mxGeometry>
        </mxCell>
        <mxCell id="OzYki6O7S9MT6wnLtiMj-35" value="..." style="text;html=1;align=center;verticalAlign=middle;resizable=0;points=[];autosize=1;strokeColor=none;fillColor=none;" parent="1" vertex="1">
          <mxGeometry x="580" y="395" width="30" height="30" as="geometry" />
        </mxCell>
        <mxCell id="OzYki6O7S9MT6wnLtiMj-36" value="..." style="text;html=1;align=center;verticalAlign=middle;resizable=0;points=[];autosize=1;strokeColor=none;fillColor=none;" parent="1" vertex="1">
          <mxGeometry x="580" y="200" width="30" height="30" as="geometry" />
        </mxCell>
        <mxCell id="OzYki6O7S9MT6wnLtiMj-40" value="" style="endArrow=classic;html=1;rounded=0;exitX=0.951;exitY=0.694;exitDx=0;exitDy=0;exitPerimeter=0;entryX=0.037;entryY=0.688;entryDx=0;entryDy=0;entryPerimeter=0;" parent="1" source="OzYki6O7S9MT6wnLtiMj-1" target="OzYki6O7S9MT6wnLtiMj-2" edge="1">
          <mxGeometry width="50" height="50" relative="1" as="geometry">
            <mxPoint x="210" y="280" as="sourcePoint" />
            <mxPoint x="260" y="236" as="targetPoint" />
          </mxGeometry>
        </mxCell>
        <mxCell id="OzYki6O7S9MT6wnLtiMj-42" value="$$k\lambda$$" style="edgeLabel;html=1;align=center;verticalAlign=middle;resizable=0;points=[];labelBackgroundColor=none;" parent="OzYki6O7S9MT6wnLtiMj-40" connectable="0" vertex="1">
          <mxGeometry x="-0.461" y="-1" relative="1" as="geometry">
            <mxPoint x="21" y="14" as="offset" />
          </mxGeometry>
        </mxCell>
        <mxCell id="OzYki6O7S9MT6wnLtiMj-41" value="" style="endArrow=classic;html=1;rounded=0;exitX=0.001;exitY=0.397;exitDx=0;exitDy=0;exitPerimeter=0;entryX=0.993;entryY=0.399;entryDx=0;entryDy=0;entryPerimeter=0;" parent="1" source="OzYki6O7S9MT6wnLtiMj-2" target="OzYki6O7S9MT6wnLtiMj-1" edge="1">
          <mxGeometry width="50" height="50" relative="1" as="geometry">
            <mxPoint x="180" y="210" as="sourcePoint" />
            <mxPoint x="210" y="190" as="targetPoint" />
          </mxGeometry>
        </mxCell>
        <mxCell id="OzYki6O7S9MT6wnLtiMj-43" value="$$\mu$$" style="edgeLabel;html=1;align=center;verticalAlign=middle;resizable=0;points=[];labelBackgroundColor=none;" parent="OzYki6O7S9MT6wnLtiMj-41" connectable="0" vertex="1">
          <mxGeometry x="-0.1382" relative="1" as="geometry">
            <mxPoint x="-5" y="-12" as="offset" />
          </mxGeometry>
        </mxCell>
        <mxCell id="OzYki6O7S9MT6wnLtiMj-44" value="" style="endArrow=classic;html=1;rounded=0;exitX=0.984;exitY=0.639;exitDx=0;exitDy=0;exitPerimeter=0;entryX=0.018;entryY=0.643;entryDx=0;entryDy=0;entryPerimeter=0;" parent="1" source="OzYki6O7S9MT6wnLtiMj-2" target="OzYki6O7S9MT6wnLtiMj-3" edge="1">
          <mxGeometry width="50" height="50" relative="1" as="geometry">
            <mxPoint x="340" y="232" as="sourcePoint" />
            <mxPoint x="420" y="231" as="targetPoint" />
          </mxGeometry>
        </mxCell>
        <mxCell id="OzYki6O7S9MT6wnLtiMj-45" value="$$(k-1)\lambda$$" style="edgeLabel;html=1;align=center;verticalAlign=middle;resizable=0;points=[];labelBackgroundColor=none;" parent="OzYki6O7S9MT6wnLtiMj-44" connectable="0" vertex="1">
          <mxGeometry x="-0.461" y="-1" relative="1" as="geometry">
            <mxPoint x="21" y="14" as="offset" />
          </mxGeometry>
        </mxCell>
        <mxCell id="OzYki6O7S9MT6wnLtiMj-46" value="" style="endArrow=classic;html=1;rounded=0;exitX=0.028;exitY=0.358;exitDx=0;exitDy=0;exitPerimeter=0;entryX=0.983;entryY=0.353;entryDx=0;entryDy=0;entryPerimeter=0;" parent="1" source="OzYki6O7S9MT6wnLtiMj-3" target="OzYki6O7S9MT6wnLtiMj-2" edge="1">
          <mxGeometry width="50" height="50" relative="1" as="geometry">
            <mxPoint x="424" y="208" as="sourcePoint" />
            <mxPoint x="343" y="208" as="targetPoint" />
          </mxGeometry>
        </mxCell>
        <mxCell id="OzYki6O7S9MT6wnLtiMj-47" value="$$\mu$$" style="edgeLabel;html=1;align=center;verticalAlign=middle;resizable=0;points=[];labelBackgroundColor=none;" parent="OzYki6O7S9MT6wnLtiMj-46" connectable="0" vertex="1">
          <mxGeometry x="-0.1382" relative="1" as="geometry">
            <mxPoint x="-5" y="-12" as="offset" />
          </mxGeometry>
        </mxCell>
        <mxCell id="OzYki6O7S9MT6wnLtiMj-48" value="" style="endArrow=classic;html=1;rounded=0;exitX=0.974;exitY=0.687;exitDx=0;exitDy=0;exitPerimeter=0;entryX=0.037;entryY=0.688;entryDx=0;entryDy=0;entryPerimeter=0;" parent="1" source="OzYki6O7S9MT6wnLtiMj-3" edge="1">
          <mxGeometry width="50" height="50" relative="1" as="geometry">
            <mxPoint x="493" y="236" as="sourcePoint" />
            <mxPoint x="580" y="235" as="targetPoint" />
          </mxGeometry>
        </mxCell>
        <mxCell id="OzYki6O7S9MT6wnLtiMj-49" value="$$(k-2)\lambda$$" style="edgeLabel;html=1;align=center;verticalAlign=middle;resizable=0;points=[];labelBackgroundColor=none;" parent="OzYki6O7S9MT6wnLtiMj-48" connectable="0" vertex="1">
          <mxGeometry x="-0.461" y="-1" relative="1" as="geometry">
            <mxPoint x="21" y="14" as="offset" />
          </mxGeometry>
        </mxCell>
        <mxCell id="OzYki6O7S9MT6wnLtiMj-50" value="" style="endArrow=classic;html=1;rounded=0;entryX=0.994;entryY=0.409;entryDx=0;entryDy=0;entryPerimeter=0;" parent="1" target="OzYki6O7S9MT6wnLtiMj-3" edge="1">
          <mxGeometry width="50" height="50" relative="1" as="geometry">
            <mxPoint x="580" y="212" as="sourcePoint" />
            <mxPoint x="496" y="212" as="targetPoint" />
          </mxGeometry>
        </mxCell>
        <mxCell id="OzYki6O7S9MT6wnLtiMj-51" value="$$\mu$$" style="edgeLabel;html=1;align=center;verticalAlign=middle;resizable=0;points=[];labelBackgroundColor=none;" parent="OzYki6O7S9MT6wnLtiMj-50" connectable="0" vertex="1">
          <mxGeometry x="-0.1382" relative="1" as="geometry">
            <mxPoint x="-5" y="-12" as="offset" />
          </mxGeometry>
        </mxCell>
        <mxCell id="OzYki6O7S9MT6wnLtiMj-52" value="" style="endArrow=classic;html=1;rounded=0;entryX=0.035;entryY=0.688;entryDx=0;entryDy=0;entryPerimeter=0;" parent="1" target="OzYki6O7S9MT6wnLtiMj-4" edge="1">
          <mxGeometry width="50" height="50" relative="1" as="geometry">
            <mxPoint x="610" y="235" as="sourcePoint" />
            <mxPoint x="687" y="235" as="targetPoint" />
          </mxGeometry>
        </mxCell>
        <mxCell id="OzYki6O7S9MT6wnLtiMj-53" value="$$\lambda$$" style="edgeLabel;html=1;align=center;verticalAlign=middle;resizable=0;points=[];labelBackgroundColor=none;" parent="OzYki6O7S9MT6wnLtiMj-52" connectable="0" vertex="1">
          <mxGeometry x="-0.461" y="-1" relative="1" as="geometry">
            <mxPoint x="21" y="14" as="offset" />
          </mxGeometry>
        </mxCell>
        <mxCell id="OzYki6O7S9MT6wnLtiMj-54" value="" style="endArrow=classic;html=1;rounded=0;exitX=0.011;exitY=0.406;exitDx=0;exitDy=0;exitPerimeter=0;" parent="1" source="OzYki6O7S9MT6wnLtiMj-4" edge="1">
          <mxGeometry width="50" height="50" relative="1" as="geometry">
            <mxPoint x="680" y="212" as="sourcePoint" />
            <mxPoint x="610" y="212" as="targetPoint" />
          </mxGeometry>
        </mxCell>
        <mxCell id="OzYki6O7S9MT6wnLtiMj-55" value="$$\mu$$" style="edgeLabel;html=1;align=center;verticalAlign=middle;resizable=0;points=[];labelBackgroundColor=none;" parent="OzYki6O7S9MT6wnLtiMj-54" connectable="0" vertex="1">
          <mxGeometry x="-0.1382" relative="1" as="geometry">
            <mxPoint x="-5" y="-12" as="offset" />
          </mxGeometry>
        </mxCell>
      </root>
    </mxGraphModel>
  </diagram>
</mxfile>
